<svg version="1.1" xmlns="http://www.w3.org/2000/svg" viewBox="0 0 931.5 208.5" width="1863" height="417">
  <!-- svg-source:excalidraw -->
  
  <defs>
    <style class="style-fonts">
      @font-face {
        font-family: "Virgil";
        src: url("https://excalidraw.com/Virgil.woff2");
      }
      @font-face {
        font-family: "Cascadia";
        src: url("https://excalidraw.com/Cascadia.woff2");
      }
      @font-face {
        font-family: "Assistant";
        src: url("https://excalidraw.com/Assistant-Regular.woff2");
      }
    </style>
    
  </defs>
  <rect x="0" y="0" width="931.5" height="208.5" fill="#ffffff"></rect><g stroke-linecap="round" transform="translate(10 120.5) rotate(0 163.5 24.5)"><path d="M0 0 C71.37 0, 142.75 0, 327 0 M0 0 C105.61 0, 211.23 0, 327 0 M327 0 C327 18.98, 327 37.96, 327 49 M327 0 C327 13.42, 327 26.84, 327 49 M327 49 C210.95 49, 94.9 49, 0 49 M327 49 C255.71 49, 184.42 49, 0 49 M0 49 C0 35.68, 0 22.37, 0 0 M0 49 C0 31.89, 0 14.78, 0 0" stroke="#1e1e1e" stroke-width="1" fill="none"></path></g><g transform="translate(113.4609375 135.79999999999995) rotate(0 60.0390625 9.199999999999989)"><text x="60.0390625" y="0" font-family="Helvetica, Segoe UI Emoji" font-size="16px" fill="#1e1e1e" text-anchor="middle" style="white-space: pre;" direction="ltr" dominant-baseline="text-before-edge">MInst::A &lt;count&gt;</text></g><g stroke-linecap="round" transform="translate(10 10.5) rotate(0 40 54)"><path d="M0 0 C28.29 0, 56.59 0, 80 0 M0 0 C20.88 0, 41.76 0, 80 0 M80 0 C80 25.98, 80 51.95, 80 108 M80 0 C80 31.56, 80 63.13, 80 108 M80 108 C50.94 108, 21.88 108, 0 108 M80 108 C56.98 108, 33.95 108, 0 108 M0 108 C0 80.44, 0 52.87, 0 0 M0 108 C0 70.63, 0 33.25, 0 0" stroke="#1e1e1e" stroke-width="1" fill="none"></path></g><g transform="translate(15 15.5) rotate(0 28.9140625 36.80000000000001)"><text x="0" y="0" font-family="Helvetica, Segoe UI Emoji" font-size="16px" fill="#1e1e1e" text-anchor="start" style="white-space: pre;" direction="ltr" dominant-baseline="text-before-edge">zkasm_</text><text x="0" y="18.4" font-family="Helvetica, Segoe UI Emoji" font-size="16px" fill="#1e1e1e" text-anchor="start" style="white-space: pre;" direction="ltr" dominant-baseline="text-before-edge">op_1</text><text x="0" y="36.8" font-family="Helvetica, Segoe UI Emoji" font-size="16px" fill="#1e1e1e" text-anchor="start" style="white-space: pre;" direction="ltr" dominant-baseline="text-before-edge"></text><text x="0" y="55.199999999999996" font-family="Helvetica, Segoe UI Emoji" font-size="16px" fill="#1e1e1e" text-anchor="start" style="white-space: pre;" direction="ltr" dominant-baseline="text-before-edge">&lt;count&gt;</text></g><g stroke-linecap="round" transform="translate(92 10.5) rotate(0 40 54)"><path d="M0 0 C29.99 0, 59.97 0, 80 0 M0 0 C19.83 0, 39.67 0, 80 0 M80 0 C80 30.88, 80 61.77, 80 108 M80 0 C80 24.7, 80 49.4, 80 108 M80 108 C49.99 108, 19.98 108, 0 108 M80 108 C63.89 108, 47.78 108, 0 108 M0 108 C0 66.23, 0 24.45, 0 0 M0 108 C0 79.28, 0 50.55, 0 0" stroke="#1e1e1e" stroke-width="1" fill="none"></path></g><g transform="translate(97 15.5) rotate(0 28.9140625 36.80000000000001)"><text x="0" y="0" font-family="Helvetica, Segoe UI Emoji" font-size="16px" fill="#1e1e1e" text-anchor="start" style="white-space: pre;" direction="ltr" dominant-baseline="text-before-edge">zkasm_</text><text x="0" y="18.4" font-family="Helvetica, Segoe UI Emoji" font-size="16px" fill="#1e1e1e" text-anchor="start" style="white-space: pre;" direction="ltr" dominant-baseline="text-before-edge">op_2</text><text x="0" y="36.8" font-family="Helvetica, Segoe UI Emoji" font-size="16px" fill="#1e1e1e" text-anchor="start" style="white-space: pre;" direction="ltr" dominant-baseline="text-before-edge"></text><text x="0" y="55.199999999999996" font-family="Helvetica, Segoe UI Emoji" font-size="16px" fill="#1e1e1e" text-anchor="start" style="white-space: pre;" direction="ltr" dominant-baseline="text-before-edge">&lt;count&gt;</text></g><g stroke-linecap="round" transform="translate(174 10.5) rotate(0 40 54)"><path d="M0 0 C30.19 0, 60.38 0, 80 0 M0 0 C19.4 0, 38.79 0, 80 0 M80 0 C80 40.88, 80 81.76, 80 108 M80 0 C80 35.45, 80 70.9, 80 108 M80 108 C58.78 108, 37.56 108, 0 108 M80 108 C58.62 108, 37.25 108, 0 108 M0 108 C0 76.56, 0 45.12, 0 0 M0 108 C0 85.67, 0 63.34, 0 0" stroke="#1e1e1e" stroke-width="1" fill="none"></path></g><g transform="translate(179 15.5) rotate(0 28.9140625 36.80000000000001)"><text x="0" y="0" font-family="Helvetica, Segoe UI Emoji" font-size="16px" fill="#1e1e1e" text-anchor="start" style="white-space: pre;" direction="ltr" dominant-baseline="text-before-edge">zkasm_</text><text x="0" y="18.4" font-family="Helvetica, Segoe UI Emoji" font-size="16px" fill="#1e1e1e" text-anchor="start" style="white-space: pre;" direction="ltr" dominant-baseline="text-before-edge">op_5</text><text x="0" y="36.8" font-family="Helvetica, Segoe UI Emoji" font-size="16px" fill="#1e1e1e" text-anchor="start" style="white-space: pre;" direction="ltr" dominant-baseline="text-before-edge"></text><text x="0" y="55.199999999999996" font-family="Helvetica, Segoe UI Emoji" font-size="16px" fill="#1e1e1e" text-anchor="start" style="white-space: pre;" direction="ltr" dominant-baseline="text-before-edge">&lt;count&gt;</text></g><g stroke-linecap="round" transform="translate(257 10.5) rotate(0 40 54)"><path d="M0 0 C25.65 0, 51.3 0, 80 0 M0 0 C20.44 0, 40.88 0, 80 0 M80 0 C80 30.66, 80 61.32, 80 108 M80 0 C80 29.35, 80 58.69, 80 108 M80 108 C63.59 108, 47.19 108, 0 108 M80 108 C63.32 108, 46.64 108, 0 108 M0 108 C0 78.4, 0 48.8, 0 0 M0 108 C0 65.28, 0 22.56, 0 0" stroke="#1e1e1e" stroke-width="1" fill="none"></path></g><g transform="translate(262 15.5) rotate(0 28.9140625 36.80000000000001)"><text x="0" y="0" font-family="Helvetica, Segoe UI Emoji" font-size="16px" fill="#1e1e1e" text-anchor="start" style="white-space: pre;" direction="ltr" dominant-baseline="text-before-edge">zkasm_</text><text x="0" y="18.4" font-family="Helvetica, Segoe UI Emoji" font-size="16px" fill="#1e1e1e" text-anchor="start" style="white-space: pre;" direction="ltr" dominant-baseline="text-before-edge">op_7</text><text x="0" y="36.8" font-family="Helvetica, Segoe UI Emoji" font-size="16px" fill="#1e1e1e" text-anchor="start" style="white-space: pre;" direction="ltr" dominant-baseline="text-before-edge"></text><text x="0" y="55.199999999999996" font-family="Helvetica, Segoe UI Emoji" font-size="16px" fill="#1e1e1e" text-anchor="start" style="white-space: pre;" direction="ltr" dominant-baseline="text-before-edge">&lt;count&gt;</text></g><g stroke-linecap="round" transform="translate(344.5 120) rotate(0 205 24.5)"><path d="M0 0 C132.15 0, 264.3 0, 410 0 M0 0 C90.91 0, 181.81 0, 410 0 M410 0 C410 13.04, 410 26.08, 410 49 M410 0 C410 13.64, 410 27.27, 410 49 M410 49 C294.15 49, 178.29 49, 0 49 M410 49 C297.38 49, 184.75 49, 0 49 M0 49 C0 36.76, 0 24.52, 0 0 M0 49 C0 37.24, 0 25.49, 0 0" stroke="#1e1e1e" stroke-width="1" fill="none"></path></g><g transform="translate(488.58203125 135.29999999999995) rotate(0 60.91796875 9.199999999999989)"><text x="60.91796875" y="0" font-family="Helvetica, Segoe UI Emoji" font-size="16px" fill="#1e1e1e" text-anchor="middle" style="white-space: pre;" direction="ltr" dominant-baseline="text-before-edge">MInst::C &lt;count&gt;</text></g><g stroke-linecap="round" transform="translate(344.5 11) rotate(0 40 54)"><path d="M0 0 C17.54 0, 35.08 0, 80 0 M0 0 C18.13 0, 36.25 0, 80 0 M80 0 C80 42.12, 80 84.23, 80 108 M80 0 C80 26.74, 80 53.48, 80 108 M80 108 C58.26 108, 36.52 108, 0 108 M80 108 C58.92 108, 37.83 108, 0 108 M0 108 C0 74.65, 0 41.29, 0 0 M0 108 C0 66.84, 0 25.68, 0 0" stroke="#1e1e1e" stroke-width="1" fill="none"></path></g><g transform="translate(349.5 16) rotate(0 28.9140625 36.80000000000001)"><text x="0" y="0" font-family="Helvetica, Segoe UI Emoji" font-size="16px" fill="#1e1e1e" text-anchor="start" style="white-space: pre;" direction="ltr" dominant-baseline="text-before-edge">zkasm_</text><text x="0" y="18.4" font-family="Helvetica, Segoe UI Emoji" font-size="16px" fill="#1e1e1e" text-anchor="start" style="white-space: pre;" direction="ltr" dominant-baseline="text-before-edge">op_3</text><text x="0" y="36.8" font-family="Helvetica, Segoe UI Emoji" font-size="16px" fill="#1e1e1e" text-anchor="start" style="white-space: pre;" direction="ltr" dominant-baseline="text-before-edge"></text><text x="0" y="55.199999999999996" font-family="Helvetica, Segoe UI Emoji" font-size="16px" fill="#1e1e1e" text-anchor="start" style="white-space: pre;" direction="ltr" dominant-baseline="text-before-edge">&lt;count&gt;</text></g><g stroke-linecap="round" transform="translate(426.5 11) rotate(0 40 54)"><path d="M0 0 C22.05 0, 44.11 0, 80 0 M0 0 C16.1 0, 32.2 0, 80 0 M80 0 C80 22.15, 80 44.29, 80 108 M80 0 C80 29.94, 80 59.88, 80 108 M80 108 C49.34 108, 18.68 108, 0 108 M80 108 C54.68 108, 29.37 108, 0 108 M0 108 C0 65.29, 0 22.58, 0 0 M0 108 C0 72.54, 0 37.07, 0 0" stroke="#1e1e1e" stroke-width="1" fill="none"></path></g><g transform="translate(431.5 16) rotate(0 28.9140625 36.80000000000001)"><text x="0" y="0" font-family="Helvetica, Segoe UI Emoji" font-size="16px" fill="#1e1e1e" text-anchor="start" style="white-space: pre;" direction="ltr" dominant-baseline="text-before-edge">zkasm_</text><text x="0" y="18.4" font-family="Helvetica, Segoe UI Emoji" font-size="16px" fill="#1e1e1e" text-anchor="start" style="white-space: pre;" direction="ltr" dominant-baseline="text-before-edge">op_2</text><text x="0" y="36.8" font-family="Helvetica, Segoe UI Emoji" font-size="16px" fill="#1e1e1e" text-anchor="start" style="white-space: pre;" direction="ltr" dominant-baseline="text-before-edge"></text><text x="0" y="55.199999999999996" font-family="Helvetica, Segoe UI Emoji" font-size="16px" fill="#1e1e1e" text-anchor="start" style="white-space: pre;" direction="ltr" dominant-baseline="text-before-edge">&lt;count&gt;</text></g><g stroke-linecap="round" transform="translate(508.5 11) rotate(0 40 54)"><path d="M0 0 C23.08 0, 46.15 0, 80 0 M0 0 C18.85 0, 37.7 0, 80 0 M80 0 C80 37.52, 80 75.04, 80 108 M80 0 C80 42.43, 80 84.86, 80 108 M80 108 C52.63 108, 25.26 108, 0 108 M80 108 C52.39 108, 24.79 108, 0 108 M0 108 C0 67.64, 0 27.28, 0 0 M0 108 C0 83.24, 0 58.47, 0 0" stroke="#1e1e1e" stroke-width="1" fill="none"></path></g><g transform="translate(513.5 16) rotate(0 28.9140625 36.80000000000001)"><text x="0" y="0" font-family="Helvetica, Segoe UI Emoji" font-size="16px" fill="#1e1e1e" text-anchor="start" style="white-space: pre;" direction="ltr" dominant-baseline="text-before-edge">zkasm_</text><text x="0" y="18.4" font-family="Helvetica, Segoe UI Emoji" font-size="16px" fill="#1e1e1e" text-anchor="start" style="white-space: pre;" direction="ltr" dominant-baseline="text-before-edge">op_4</text><text x="0" y="36.8" font-family="Helvetica, Segoe UI Emoji" font-size="16px" fill="#1e1e1e" text-anchor="start" style="white-space: pre;" direction="ltr" dominant-baseline="text-before-edge"></text><text x="0" y="55.199999999999996" font-family="Helvetica, Segoe UI Emoji" font-size="16px" fill="#1e1e1e" text-anchor="start" style="white-space: pre;" direction="ltr" dominant-baseline="text-before-edge">&lt;count&gt;</text></g><g stroke-linecap="round" transform="translate(591.5 11) rotate(0 40 54)"><path d="M0 0 C24.12 0, 48.23 0, 80 0 M0 0 C17.8 0, 35.6 0, 80 0 M80 0 C80 43.19, 80 86.38, 80 108 M80 0 C80 34.93, 80 69.86, 80 108 M80 108 C54.38 108, 28.76 108, 0 108 M80 108 C58.87 108, 37.73 108, 0 108 M0 108 C0 80.5, 0 53, 0 0 M0 108 C0 71.86, 0 35.72, 0 0" stroke="#1e1e1e" stroke-width="1" fill="none"></path></g><g transform="translate(596.5 16) rotate(0 28.9140625 36.80000000000001)"><text x="0" y="0" font-family="Helvetica, Segoe UI Emoji" font-size="16px" fill="#1e1e1e" text-anchor="start" style="white-space: pre;" direction="ltr" dominant-baseline="text-before-edge">zkasm_</text><text x="0" y="18.4" font-family="Helvetica, Segoe UI Emoji" font-size="16px" fill="#1e1e1e" text-anchor="start" style="white-space: pre;" direction="ltr" dominant-baseline="text-before-edge">op_1</text><text x="0" y="36.8" font-family="Helvetica, Segoe UI Emoji" font-size="16px" fill="#1e1e1e" text-anchor="start" style="white-space: pre;" direction="ltr" dominant-baseline="text-before-edge"></text><text x="0" y="55.199999999999996" font-family="Helvetica, Segoe UI Emoji" font-size="16px" fill="#1e1e1e" text-anchor="start" style="white-space: pre;" direction="ltr" dominant-baseline="text-before-edge">&lt;count&gt;</text></g><g stroke-linecap="round" transform="translate(675 10.5) rotate(0 40 54)"><path d="M0 0 C28.76 0, 57.52 0, 80 0 M0 0 C17.09 0, 34.18 0, 80 0 M80 0 C80 24.64, 80 49.28, 80 108 M80 0 C80 25.58, 80 51.16, 80 108 M80 108 C50.37 108, 20.75 108, 0 108 M80 108 C62.62 108, 45.24 108, 0 108 M0 108 C0 81.63, 0 55.25, 0 0 M0 108 C0 66.79, 0 25.58, 0 0" stroke="#1e1e1e" stroke-width="1" fill="none"></path></g><g transform="translate(680 15.5) rotate(0 28.9140625 36.80000000000001)"><text x="0" y="0" font-family="Helvetica, Segoe UI Emoji" font-size="16px" fill="#1e1e1e" text-anchor="start" style="white-space: pre;" direction="ltr" dominant-baseline="text-before-edge">zkasm_</text><text x="0" y="18.4" font-family="Helvetica, Segoe UI Emoji" font-size="16px" fill="#1e1e1e" text-anchor="start" style="white-space: pre;" direction="ltr" dominant-baseline="text-before-edge">op_6</text><text x="0" y="36.8" font-family="Helvetica, Segoe UI Emoji" font-size="16px" fill="#1e1e1e" text-anchor="start" style="white-space: pre;" direction="ltr" dominant-baseline="text-before-edge"></text><text x="0" y="55.199999999999996" font-family="Helvetica, Segoe UI Emoji" font-size="16px" fill="#1e1e1e" text-anchor="start" style="white-space: pre;" direction="ltr" dominant-baseline="text-before-edge">&lt;count&gt;</text></g><g stroke-linecap="round" transform="translate(759.5 120) rotate(0 81 24.5)"><path d="M0 0 C45.07 0, 90.13 0, 162 0 M0 0 C49.82 0, 99.63 0, 162 0 M162 0 C162 11.97, 162 23.93, 162 49 M162 0 C162 11.72, 162 23.44, 162 49 M162 49 C99.3 49, 36.61 49, 0 49 M162 49 C108.92 49, 55.83 49, 0 49 M0 49 C0 38.95, 0 28.91, 0 0 M0 49 C0 36.43, 0 23.85, 0 0" stroke="#1e1e1e" stroke-width="1" fill="none"></path></g><g transform="translate(779.58203125 135.29999999999995) rotate(0 60.91796875 9.199999999999989)"><text x="60.91796875" y="0" font-family="Helvetica, Segoe UI Emoji" font-size="16px" fill="#1e1e1e" text-anchor="middle" style="white-space: pre;" direction="ltr" dominant-baseline="text-before-edge">MInst::D &lt;count&gt;</text></g><g stroke-linecap="round" transform="translate(759.5 10) rotate(0 40 54)"><path d="M0 0 C22.47 0, 44.95 0, 80 0 M0 0 C22.17 0, 44.34 0, 80 0 M80 0 C80 42.26, 80 84.53, 80 108 M80 0 C80 21.72, 80 43.44, 80 108 M80 108 C55.89 108, 31.79 108, 0 108 M80 108 C63.79 108, 47.59 108, 0 108 M0 108 C0 67.45, 0 26.9, 0 0 M0 108 C0 70.96, 0 33.92, 0 0" stroke="#1e1e1e" stroke-width="1" fill="none"></path></g><g transform="translate(764.5 15) rotate(0 28.9140625 36.80000000000001)"><text x="0" y="0" font-family="Helvetica, Segoe UI Emoji" font-size="16px" fill="#1e1e1e" text-anchor="start" style="white-space: pre;" direction="ltr" dominant-baseline="text-before-edge">zkasm_</text><text x="0" y="18.4" font-family="Helvetica, Segoe UI Emoji" font-size="16px" fill="#1e1e1e" text-anchor="start" style="white-space: pre;" direction="ltr" dominant-baseline="text-before-edge">op_4</text><text x="0" y="36.8" font-family="Helvetica, Segoe UI Emoji" font-size="16px" fill="#1e1e1e" text-anchor="start" style="white-space: pre;" direction="ltr" dominant-baseline="text-before-edge"></text><text x="0" y="55.199999999999996" font-family="Helvetica, Segoe UI Emoji" font-size="16px" fill="#1e1e1e" text-anchor="start" style="white-space: pre;" direction="ltr" dominant-baseline="text-before-edge">&lt;count&gt;</text></g><g stroke-linecap="round" transform="translate(841.5 10) rotate(0 40 54)"><path d="M0 0 C25.53 0, 51.06 0, 80 0 M0 0 C22 0, 44 0, 80 0 M80 0 C80 30.99, 80 61.98, 80 108 M80 0 C80 21.65, 80 43.3, 80 108 M80 108 C49.88 108, 19.77 108, 0 108 M80 108 C61 108, 42.01 108, 0 108 M0 108 C0 65.54, 0 23.08, 0 0 M0 108 C0 81, 0 54, 0 0" stroke="#1e1e1e" stroke-width="1" fill="none"></path></g><g transform="translate(846.5 15) rotate(0 28.9140625 36.80000000000001)"><text x="0" y="0" font-family="Helvetica, Segoe UI Emoji" font-size="16px" fill="#1e1e1e" text-anchor="start" style="white-space: pre;" direction="ltr" dominant-baseline="text-before-edge">zkasm_</text><text x="0" y="18.4" font-family="Helvetica, Segoe UI Emoji" font-size="16px" fill="#1e1e1e" text-anchor="start" style="white-space: pre;" direction="ltr" dominant-baseline="text-before-edge">op_1</text><text x="0" y="36.8" font-family="Helvetica, Segoe UI Emoji" font-size="16px" fill="#1e1e1e" text-anchor="start" style="white-space: pre;" direction="ltr" dominant-baseline="text-before-edge"></text><text x="0" y="55.199999999999996" font-family="Helvetica, Segoe UI Emoji" font-size="16px" fill="#1e1e1e" text-anchor="start" style="white-space: pre;" direction="ltr" dominant-baseline="text-before-edge">&lt;count&gt;</text></g><g stroke-linecap="round"><g transform="translate(13 198.5) rotate(0 245 -1)"><path d="M0 0 C110.62 -0.45, 221.24 -0.9, 490 -2 M0 0 C135.27 -0.55, 270.53 -1.1, 490 -2" stroke="#1e1e1e" stroke-width="1" fill="none"></path></g><g transform="translate(13 198.5) rotate(0 245 -1)"><path d="M466.54 6.65 C471.84 4.69, 477.13 2.74, 490 -2 M466.54 6.65 C473.02 4.26, 479.49 1.87, 490 -2" stroke="#1e1e1e" stroke-width="1" fill="none"></path></g><g transform="translate(13 198.5) rotate(0 245 -1)"><path d="M466.47 -10.45 C471.78 -8.55, 477.1 -6.64, 490 -2 M466.47 -10.45 C472.97 -8.12, 479.46 -5.79, 490 -2" stroke="#1e1e1e" stroke-width="1" fill="none"></path></g></g><mask></mask></svg>